<svg xmlns="http://www.w3.org/2000/svg" viewBox="0 0 512 512" role="img" aria-label="Canopy density icon">
  <rect width="512" height="512" rx="96" fill="#18351f"/>
  <circle cx="256" cy="256" r="178" fill="#eaf0e5"/>
  <path d="M116 284c30-28 58-42 88-42 41 0 60 29 93 29 34 0 52-27 96-27 25 0 47 8 65 24-23 79-96 137-182 137-88 0-162-60-183-141 8-7 16-14 23-20z" fill="#1f7a39"/>
  <path d="M114 226c21-66 82-114 155-114 78 0 142 55 158 128-19-9-38-13-58-13-43 0-67 25-101 25-31 0-48-27-91-27-27 0-54 8-77 24 4-9 8-16 14-23z" fill="#7fb7e6"/>
  <g fill="#18351f" opacity="0.86">
    <circle cx="170" cy="188" r="10"/><circle cx="220" cy="162" r="10"/><circle cx="278" cy="158" r="10"/><circle cx="332" cy="184" r="10"/>
    <circle cx="164" cy="246" r="10"/><circle cx="222" cy="228" r="10"/><circle cx="281" cy="231" r="10"/><circle cx="345" cy="249" r="10"/>
    <circle cx="191" cy="309" r="10"/><circle cx="256" cy="308" r="10"/><circle cx="318" cy="310" r="10"/>
  </g>
</svg>
